<svg height='100px' width='100px'  fill="#ffffff" fill-opacity="0.8" xmlns="http://www.w3.org/2000/svg" data-name="Layer 1" viewBox="0 0 512 512" x="0px" y="0px"><title>360 image</title><path d="M418.464,404.751l-110.5-81.328-63.031,59.811-.032.031L204,422.075c16.437,1.06,33.7,1.636,51.693,1.636C316.931,423.711,374.494,416.992,418.464,404.751Z"></path><path d="M71.545,398.056c27.985,10.1,66.925,18.333,113.649,22.565l43.929-41.685L152.661,324.9Z"></path><path d="M382.606,88.148l.135,104.409c14.525-2.694,28.133-5.82,40.584-9.455,37.657-11,61.269-25.55,64.625-39.4l.01-6.706h.031C483.656,118,442.715,99.292,382.606,88.148Z"></path><path d="M126.093,191.959l.139-103.138c-30.549,5.856-56.1,13.713-74.249,22.865-18.2,9.178-28.228,19.378-28.228,28.72C23.755,159.365,62.52,179.7,126.093,191.959Z"></path><circle cx="230.049" cy="284.29" r="20.178"></circle><path d="M256.068,217.285c-64.569,0-125.362-7.368-171.182-20.747-28.222-8.241-48.787-18.152-61.2-29.33L23.2,360.849c0,10.583,12.113,21.6,33.886,31.4l90.357-81.493a7,7,0,0,1,8.728-.518l83.309,58.876,63.1-59.875a7,7,0,0,1,8.968-.56L435.1,399.613c33.135-11.347,52.531-25.508,52.531-38.781l.283-193.139c-12.465,10.981-32.852,20.723-60.666,28.845C381.429,209.917,320.636,217.285,256.068,217.285ZM230.049,318.469a34.179,34.179,0,1,1,34.179-34.179A34.217,34.217,0,0,1,230.049,318.469Z"></path></svg>