<?xml version="1.0" standalone="no"?>
<!DOCTYPE svg PUBLIC "-//W3C//DTD SVG 20010904//EN"
 "http://www.w3.org/TR/2001/REC-SVG-20010904/DTD/svg10.dtd">
<svg version="1.0" xmlns="http://www.w3.org/2000/svg"
 width="700.000000pt" height="700.000000pt" viewBox="0 0 700.000000 700.000000"
 preserveAspectRatio="xMidYMid meet">
<metadata>
Created by potrace 1.11, written by Peter Selinger 2001-2013
</metadata>
<g transform="translate(0.000000,700.000000) scale(0.100000,-0.100000)"
fill="#000000" stroke="none">
<path d="M5230 5081 c1 -391 4 -711 8 -711 24 0 359 74 452 100 429 118 727
257 883 413 72 72 96 123 97 201 0 75 -26 129 -97 199 -69 68 -91 85 -196 145
-197 113 -459 208 -799 292 -42 11 -87 21 -100 24 -13 2 -43 9 -68 15 -64 14
-100 21 -143 28 l-37 6 0 -712z"/>
<path d="M1669 5776 c-2 -2 -17 -6 -34 -9 -110 -18 -483 -116 -560 -147 -16
-6 -37 -13 -45 -15 -96 -20 -381 -156 -490 -233 -241 -172 -276 -326 -110
-493 132 -133 423 -277 760 -374 195 -56 505 -128 524 -122 7 2 11 212 11 700
l1 697 -26 0 c-15 0 -29 -2 -31 -4z"/>
<path d="M323 4117 c-7 -2271 -8 -2087 14 -2137 42 -93 141 -180 309 -273 129
-72 133 -73 169 -39 17 15 57 52 90 82 53 47 220 198 249 225 6 6 81 73 166
149 85 77 157 142 160 145 3 3 43 40 90 81 47 41 90 80 96 85 13 12 178 162
259 235 33 30 71 65 85 77 25 23 44 28 88 24 12 -1 73 -38 135 -81 61 -44 119
-84 127 -90 47 -32 609 -430 738 -522 84 -60 159 -111 167 -114 8 -3 21 0 28
8 40 39 349 332 365 346 11 9 95 89 187 177 92 88 180 171 194 185 15 14 48
45 73 69 48 45 94 59 132 38 11 -5 83 -56 160 -113 318 -235 631 -465 691
-509 70 -51 202 -148 215 -158 16 -13 300 -222 508 -375 70 -50 130 -92 134
-92 18 0 185 67 287 116 205 98 345 207 402 315 l24 44 3 1343 c2 933 0 1342
-7 1342 -6 0 -11 -4 -11 -8 0 -10 -183 -132 -198 -132 -6 0 -12 -3 -14 -8 -10
-23 -425 -195 -527 -217 -9 -2 -55 -15 -103 -30 -154 -45 -424 -106 -626 -141
-12 -2 -48 -8 -80 -14 -31 -5 -73 -12 -92 -14 -19 -3 -48 -7 -65 -10 -29 -4
-73 -10 -172 -22 -27 -3 -82 -9 -123 -14 -41 -5 -109 -12 -150 -15 -41 -3 -95
-8 -120 -10 -253 -23 -392 -28 -860 -29 -392 -1 -591 4 -790 19 -100 7 -197
16 -235 20 -22 3 -65 7 -95 10 -56 5 -135 14 -180 20 -14 2 -50 7 -80 10 -30
3 -62 8 -70 10 -8 2 -37 7 -65 10 -100 11 -322 53 -586 110 -246 53 -597 174
-796 276 -113 57 -159 86 -282 176 -15 12 -17 -30 -18 -580z m2962 -557 c66
-27 82 -35 122 -63 212 -140 267 -429 123 -645 -86 -128 -229 -203 -390 -204
-83 0 -139 15 -218 58 -342 186 -316 681 44 838 23 10 57 22 75 26 48 11 209
5 244 -10z"/>
<path d="M3053 3373 c-53 -18 -116 -73 -150 -131 -22 -37 -28 -61 -30 -117 -5
-148 89 -259 239 -283 120 -19 232 47 285 167 21 46 24 67 21 121 -6 80 -32
132 -91 187 -73 67 -176 88 -274 56z"/>
<path d="M4103 2478 c-59 -57 -119 -114 -134 -128 -87 -83 -350 -333 -379
-360 -19 -18 -102 -97 -185 -175 -82 -79 -168 -160 -190 -181 -22 -20 -110
-103 -195 -185 -85 -81 -172 -163 -193 -183 -36 -34 -37 -36 -15 -37 13 0 41
-2 63 -4 186 -15 760 -21 1015 -11 128 5 335 16 390 21 25 2 81 7 125 10 44 4
94 8 110 10 17 1 62 6 100 10 39 3 77 8 85 10 8 2 43 7 77 10 34 3 70 8 81 10
11 2 42 6 69 10 26 3 71 10 98 15 28 5 68 11 90 14 44 6 75 12 151 27 28 5 64
12 80 15 16 3 37 7 46 10 10 3 28 7 40 9 13 3 83 19 156 38 l134 33 -69 51
c-37 27 -158 116 -268 197 -110 81 -207 153 -215 159 -8 7 -37 28 -65 47 -27
19 -56 41 -65 47 -8 7 -82 62 -165 122 -82 61 -155 114 -160 119 -6 4 -39 29
-75 55 -36 26 -74 53 -85 61 -32 24 -235 174 -292 217 l-52 39 -108 -102z"/>
<path d="M2034 2512 c-51 -47 -202 -184 -234 -212 -9 -8 -54 -49 -100 -90 -46
-41 -108 -97 -139 -125 -30 -27 -62 -57 -71 -65 -9 -8 -54 -49 -100 -90 -47
-41 -94 -84 -106 -95 -11 -11 -58 -54 -104 -95 -154 -138 -190 -172 -190 -180
0 -23 492 -155 745 -200 33 -5 71 -12 85 -15 36 -7 189 -33 230 -39 137 -19
331 -42 435 -51 l50 -5 86 83 c122 117 405 386 464 440 27 26 47 48 45 50 -7
5 -785 554 -860 606 -36 25 -67 48 -70 51 -5 5 -88 63 -105 73 -6 3 -33 -16
-61 -41z"/>
</g>
</svg>
